<mxfile host="app.diagrams.net" agent="Mozilla/5.0 (Macintosh; Intel Mac OS X 10_15_7) AppleWebKit/537.36 (KHTML, like Gecko) Chrome/132.0.0.0 Safari/537.36" version="26.0.11">
  <diagram id="Ht1M8jgEwFfnCIfOTk4-" name="Page-1">
    <mxGraphModel dx="3401" dy="1874" grid="1" gridSize="10" guides="1" tooltips="1" connect="1" arrows="1" fold="1" page="1" pageScale="1" pageWidth="1169" pageHeight="827" math="0" shadow="0">
      <root>
        <mxCell id="0" />
        <mxCell id="1" parent="0" />
        <mxCell id="UEzPUAAOIrF-is8g5C7q-74" value="AWS Cloud" style="points=[[0,0],[0.25,0],[0.5,0],[0.75,0],[1,0],[1,0.25],[1,0.5],[1,0.75],[1,1],[0.75,1],[0.5,1],[0.25,1],[0,1],[0,0.75],[0,0.5],[0,0.25]];outlineConnect=0;gradientColor=none;html=1;whiteSpace=wrap;fontSize=12;fontStyle=0;shape=mxgraph.aws4.group;grIcon=mxgraph.aws4.group_aws_cloud_alt;strokeColor=#232F3E;fillColor=none;verticalAlign=top;align=left;spacingLeft=30;fontColor=#232F3E;dashed=0;labelBackgroundColor=#ffffff;container=1;pointerEvents=0;collapsible=0;recursiveResize=0;" parent="1" vertex="1">
          <mxGeometry x="-470" y="-80" width="1160" height="840" as="geometry" />
        </mxCell>
        <mxCell id="vOZcsts-n8bVb5NV--et-61" value="Availability Zone 2" style="fillColor=none;strokeColor=#147EBA;dashed=1;verticalAlign=top;fontStyle=0;fontColor=#147EBA;whiteSpace=wrap;html=1;" vertex="1" parent="UEzPUAAOIrF-is8g5C7q-74">
          <mxGeometry x="768" y="180" width="265" height="610" as="geometry" />
        </mxCell>
        <mxCell id="_MgAOBy6feDtOFkJu5NF-143" value="VPC" style="sketch=0;outlineConnect=0;gradientColor=none;html=1;whiteSpace=wrap;fontSize=12;fontStyle=0;shape=mxgraph.aws4.group;grIcon=mxgraph.aws4.group_vpc;strokeColor=#009900;fillColor=none;verticalAlign=top;align=left;spacingLeft=30;fontColor=#009900;dashed=0;" parent="UEzPUAAOIrF-is8g5C7q-74" vertex="1">
          <mxGeometry x="100" y="160" width="1010" height="650" as="geometry" />
        </mxCell>
        <mxCell id="_MgAOBy6feDtOFkJu5NF-125" value="Availability Zone 1" style="fillColor=none;strokeColor=#147EBA;dashed=1;verticalAlign=top;fontStyle=0;fontColor=#147EBA;whiteSpace=wrap;html=1;" parent="UEzPUAAOIrF-is8g5C7q-74" vertex="1">
          <mxGeometry x="155" y="180" width="295" height="590" as="geometry" />
        </mxCell>
        <mxCell id="_MgAOBy6feDtOFkJu5NF-24" value="Private subnet- Backend01" style="points=[[0,0],[0.25,0],[0.5,0],[0.75,0],[1,0],[1,0.25],[1,0.5],[1,0.75],[1,1],[0.75,1],[0.5,1],[0.25,1],[0,1],[0,0.75],[0,0.5],[0,0.25]];outlineConnect=0;gradientColor=none;html=1;whiteSpace=wrap;fontSize=12;fontStyle=0;container=1;pointerEvents=0;collapsible=0;recursiveResize=0;shape=mxgraph.aws4.group;grIcon=mxgraph.aws4.group_security_group;grStroke=0;strokeColor=#00A4A6;fillColor=#E6F6F7;verticalAlign=top;align=left;spacingLeft=30;fontColor=#147EBA;dashed=0;" parent="UEzPUAAOIrF-is8g5C7q-74" vertex="1">
          <mxGeometry x="200" y="570" width="225.98" height="179" as="geometry" />
        </mxCell>
        <mxCell id="vOZcsts-n8bVb5NV--et-75" style="edgeStyle=orthogonalEdgeStyle;rounded=0;orthogonalLoop=1;jettySize=auto;html=1;" edge="1" parent="UEzPUAAOIrF-is8g5C7q-74" source="_MgAOBy6feDtOFkJu5NF-28" target="vOZcsts-n8bVb5NV--et-63">
          <mxGeometry relative="1" as="geometry" />
        </mxCell>
        <mxCell id="_MgAOBy6feDtOFkJu5NF-28" value="Application Load Balancer" style="sketch=0;outlineConnect=0;fontColor=#232F3E;gradientColor=none;fillColor=#8C4FFF;strokeColor=none;dashed=0;verticalLabelPosition=bottom;verticalAlign=top;align=center;html=1;fontSize=12;fontStyle=0;aspect=fixed;pointerEvents=1;shape=mxgraph.aws4.application_load_balancer;" parent="UEzPUAAOIrF-is8g5C7q-74" vertex="1">
          <mxGeometry x="564.38" y="247.63" width="63.25" height="63.25" as="geometry" />
        </mxCell>
        <mxCell id="_MgAOBy6feDtOFkJu5NF-73" value="Private subnet- Backend02&lt;div&gt;&lt;br&gt;&lt;/div&gt;" style="points=[[0,0],[0.25,0],[0.5,0],[0.75,0],[1,0],[1,0.25],[1,0.5],[1,0.75],[1,1],[0.75,1],[0.5,1],[0.25,1],[0,1],[0,0.75],[0,0.5],[0,0.25]];outlineConnect=0;gradientColor=none;html=1;whiteSpace=wrap;fontSize=12;fontStyle=0;container=1;pointerEvents=0;collapsible=0;recursiveResize=0;shape=mxgraph.aws4.group;grIcon=mxgraph.aws4.group_security_group;grStroke=0;strokeColor=#00A4A6;fillColor=#E6F6F7;verticalAlign=top;align=left;spacingLeft=30;fontColor=#147EBA;dashed=0;" parent="UEzPUAAOIrF-is8g5C7q-74" vertex="1">
          <mxGeometry x="791" y="570" width="235.23000000000002" height="179" as="geometry" />
        </mxCell>
        <mxCell id="vOZcsts-n8bVb5NV--et-73" style="edgeStyle=orthogonalEdgeStyle;rounded=0;orthogonalLoop=1;jettySize=auto;html=1;" edge="1" parent="UEzPUAAOIrF-is8g5C7q-74" source="_MgAOBy6feDtOFkJu5NF-3" target="vOZcsts-n8bVb5NV--et-63">
          <mxGeometry relative="1" as="geometry" />
        </mxCell>
        <mxCell id="_MgAOBy6feDtOFkJu5NF-3" value="AWS WAF&lt;br&gt;Web Application Fire Wall" style="sketch=0;points=[[0,0,0],[0.25,0,0],[0.5,0,0],[0.75,0,0],[1,0,0],[0,1,0],[0.25,1,0],[0.5,1,0],[0.75,1,0],[1,1,0],[0,0.25,0],[0,0.5,0],[0,0.75,0],[1,0.25,0],[1,0.5,0],[1,0.75,0]];outlineConnect=0;fontColor=#232F3E;fillColor=#DD344C;strokeColor=#ffffff;dashed=0;verticalLabelPosition=bottom;verticalAlign=top;align=center;html=1;fontSize=12;fontStyle=0;aspect=fixed;shape=mxgraph.aws4.resourceIcon;resIcon=mxgraph.aws4.waf;" parent="UEzPUAAOIrF-is8g5C7q-74" vertex="1">
          <mxGeometry x="450" y="12.5" width="71" height="71" as="geometry" />
        </mxCell>
        <mxCell id="vOZcsts-n8bVb5NV--et-74" style="edgeStyle=orthogonalEdgeStyle;rounded=0;orthogonalLoop=1;jettySize=auto;html=1;exitX=0;exitY=0.5;exitDx=0;exitDy=0;exitPerimeter=0;" edge="1" parent="UEzPUAAOIrF-is8g5C7q-74" source="6-wo6CA7XKE2UaLxaIhD-21">
          <mxGeometry relative="1" as="geometry">
            <mxPoint x="600" y="130" as="targetPoint" />
          </mxGeometry>
        </mxCell>
        <mxCell id="6-wo6CA7XKE2UaLxaIhD-21" value="AWS&amp;nbsp; Shield&amp;nbsp;&lt;br&gt;DDoS Protection" style="sketch=0;points=[[0,0,0],[0.25,0,0],[0.5,0,0],[0.75,0,0],[1,0,0],[0,1,0],[0.25,1,0],[0.5,1,0],[0.75,1,0],[1,1,0],[0,0.25,0],[0,0.5,0],[0,0.75,0],[1,0.25,0],[1,0.5,0],[1,0.75,0]];outlineConnect=0;fontColor=#232F3E;fillColor=#DD344C;strokeColor=#ffffff;dashed=0;verticalLabelPosition=bottom;verticalAlign=top;align=center;html=1;fontSize=12;fontStyle=0;aspect=fixed;shape=mxgraph.aws4.resourceIcon;resIcon=mxgraph.aws4.shield;" parent="UEzPUAAOIrF-is8g5C7q-74" vertex="1">
          <mxGeometry x="680" y="12.75" width="70.75" height="70.75" as="geometry" />
        </mxCell>
        <mxCell id="6-wo6CA7XKE2UaLxaIhD-48" value="Public subnet -pub01&lt;div&gt;&lt;br&gt;&lt;/div&gt;" style="points=[[0,0],[0.25,0],[0.5,0],[0.75,0],[1,0],[1,0.25],[1,0.5],[1,0.75],[1,1],[0.75,1],[0.5,1],[0.25,1],[0,1],[0,0.75],[0,0.5],[0,0.25]];outlineConnect=0;gradientColor=none;html=1;whiteSpace=wrap;fontSize=12;fontStyle=0;container=1;pointerEvents=0;collapsible=0;recursiveResize=0;shape=mxgraph.aws4.group;grIcon=mxgraph.aws4.group_security_group;grStroke=0;strokeColor=#7AA116;fillColor=#F2F6E8;verticalAlign=top;align=left;spacingLeft=30;fontColor=#248814;dashed=0;" parent="UEzPUAAOIrF-is8g5C7q-74" vertex="1">
          <mxGeometry x="200" y="200" width="220" height="158.5" as="geometry" />
        </mxCell>
        <mxCell id="6-wo6CA7XKE2UaLxaIhD-49" value="NAT Gateway&lt;div&gt;&lt;br&gt;&lt;/div&gt;" style="sketch=0;outlineConnect=0;fontColor=#232F3E;gradientColor=none;fillColor=#8C4FFF;strokeColor=none;dashed=0;verticalLabelPosition=bottom;verticalAlign=top;align=center;html=1;fontSize=12;fontStyle=0;aspect=fixed;pointerEvents=1;shape=mxgraph.aws4.nat_gateway;" parent="6-wo6CA7XKE2UaLxaIhD-48" vertex="1">
          <mxGeometry x="70.5" y="40" width="78" height="78" as="geometry" />
        </mxCell>
        <mxCell id="vOZcsts-n8bVb5NV--et-2" value="" style="group" vertex="1" connectable="0" parent="UEzPUAAOIrF-is8g5C7q-74">
          <mxGeometry x="200" y="370" width="810" height="881" as="geometry" />
        </mxCell>
        <mxCell id="_MgAOBy6feDtOFkJu5NF-21" value="Private subnet- frontend01" style="points=[[0,0],[0.25,0],[0.5,0],[0.75,0],[1,0],[1,0.25],[1,0.5],[1,0.75],[1,1],[0.75,1],[0.5,1],[0.25,1],[0,1],[0,0.75],[0,0.5],[0,0.25]];outlineConnect=0;gradientColor=none;html=1;whiteSpace=wrap;fontSize=12;fontStyle=0;container=1;pointerEvents=0;collapsible=0;recursiveResize=0;shape=mxgraph.aws4.group;grIcon=mxgraph.aws4.group_security_group;grStroke=0;strokeColor=#00A4A6;fillColor=#E6F6F7;verticalAlign=top;align=left;spacingLeft=30;fontColor=#147EBA;dashed=0;" parent="vOZcsts-n8bVb5NV--et-2" vertex="1">
          <mxGeometry width="213.97463768115944" height="156.94117647058823" as="geometry" />
        </mxCell>
        <mxCell id="_MgAOBy6feDtOFkJu5NF-25" value="Private subnet- frontend02" style="points=[[0,0],[0.25,0],[0.5,0],[0.75,0],[1,0],[1,0.25],[1,0.5],[1,0.75],[1,1],[0.75,1],[0.5,1],[0.25,1],[0,1],[0,0.75],[0,0.5],[0,0.25]];outlineConnect=0;gradientColor=none;html=1;whiteSpace=wrap;fontSize=12;fontStyle=0;container=1;pointerEvents=0;collapsible=0;recursiveResize=0;shape=mxgraph.aws4.group;grIcon=mxgraph.aws4.group_security_group;grStroke=0;strokeColor=#00A4A6;fillColor=#E6F6F7;verticalAlign=top;align=left;spacingLeft=30;fontColor=#147EBA;dashed=0;" parent="vOZcsts-n8bVb5NV--et-2" vertex="1">
          <mxGeometry x="595.03" width="214.97" height="160" as="geometry" />
        </mxCell>
        <mxCell id="6-wo6CA7XKE2UaLxaIhD-33" value="" style="sketch=0;points=[[0,0,0],[0.25,0,0],[0.5,0,0],[0.75,0,0],[1,0,0],[0,1,0],[0.25,1,0],[0.5,1,0],[0.75,1,0],[1,1,0],[0,0.25,0],[0,0.5,0],[0,0.75,0],[1,0.25,0],[1,0.5,0],[1,0.75,0]];outlineConnect=0;fontColor=#232F3E;fillColor=#ED7100;strokeColor=#ffffff;dashed=0;verticalLabelPosition=bottom;verticalAlign=top;align=center;html=1;fontSize=12;fontStyle=0;aspect=fixed;shape=mxgraph.aws4.resourceIcon;resIcon=mxgraph.aws4.ec2;" parent="vOZcsts-n8bVb5NV--et-2" vertex="1">
          <mxGeometry x="628.2451690821256" y="30.666666666666668" width="70.3529411764706" height="70.3529411764706" as="geometry" />
        </mxCell>
        <mxCell id="6-wo6CA7XKE2UaLxaIhD-34" value="" style="sketch=0;points=[[0,0,0],[0.25,0,0],[0.5,0,0],[0.75,0,0],[1,0,0],[0,1,0],[0.25,1,0],[0.5,1,0],[0.75,1,0],[1,1,0],[0,0.25,0],[0,0.5,0],[0,0.75,0],[1,0.25,0],[1,0.5,0],[1,0.75,0]];outlineConnect=0;fontColor=#232F3E;fillColor=#ED7100;strokeColor=#ffffff;dashed=0;verticalLabelPosition=bottom;verticalAlign=top;align=center;html=1;fontSize=12;fontStyle=0;aspect=fixed;shape=mxgraph.aws4.resourceIcon;resIcon=mxgraph.aws4.ec2;" parent="vOZcsts-n8bVb5NV--et-2" vertex="1">
          <mxGeometry x="638.0157004830918" y="39.68627450980392" width="70.3529411764706" height="70.3529411764706" as="geometry" />
        </mxCell>
        <mxCell id="vOZcsts-n8bVb5NV--et-72" style="edgeStyle=orthogonalEdgeStyle;rounded=0;orthogonalLoop=1;jettySize=auto;html=1;exitX=0.5;exitY=1;exitDx=0;exitDy=0;exitPerimeter=0;" edge="1" parent="vOZcsts-n8bVb5NV--et-2" source="6-wo6CA7XKE2UaLxaIhD-35" target="_MgAOBy6feDtOFkJu5NF-75">
          <mxGeometry relative="1" as="geometry" />
        </mxCell>
        <mxCell id="6-wo6CA7XKE2UaLxaIhD-35" value="Front End servers" style="sketch=0;points=[[0,0,0],[0.25,0,0],[0.5,0,0],[0.75,0,0],[1,0,0],[0,1,0],[0.25,1,0],[0.5,1,0],[0.75,1,0],[1,1,0],[0,0.25,0],[0,0.5,0],[0,0.75,0],[1,0.25,0],[1,0.5,0],[1,0.75,0]];outlineConnect=0;fontColor=#232F3E;fillColor=#ED7100;strokeColor=#ffffff;dashed=0;verticalLabelPosition=bottom;verticalAlign=top;align=center;html=1;fontSize=12;fontStyle=0;aspect=fixed;shape=mxgraph.aws4.resourceIcon;resIcon=mxgraph.aws4.ec2;" parent="vOZcsts-n8bVb5NV--et-2" vertex="1">
          <mxGeometry x="657.5567632850242" y="48.705882352941174" width="70.3529411764706" height="70.3529411764706" as="geometry" />
        </mxCell>
        <mxCell id="_MgAOBy6feDtOFkJu5NF-130" value="Auto Scaling group" style="points=[[0,0],[0.25,0],[0.5,0],[0.75,0],[1,0],[1,0.25],[1,0.5],[1,0.75],[1,1],[0.75,1],[0.5,1],[0.25,1],[0,1],[0,0.75],[0,0.5],[0,0.25]];outlineConnect=0;gradientColor=none;html=1;whiteSpace=wrap;fontSize=12;fontStyle=0;container=1;pointerEvents=0;collapsible=0;recursiveResize=0;shape=mxgraph.aws4.groupCenter;grIcon=mxgraph.aws4.group_auto_scaling_group;grStroke=1;strokeColor=#D86613;fillColor=none;verticalAlign=top;align=center;fontColor=#D86613;dashed=1;spacingTop=25;" parent="vOZcsts-n8bVb5NV--et-2" vertex="1">
          <mxGeometry x="8.793478260869565" y="7.215686274509804" width="791.4130434782609" height="135.2941176470588" as="geometry" />
        </mxCell>
        <mxCell id="6-wo6CA7XKE2UaLxaIhD-50" value="for web tier" style="text;html=1;align=center;verticalAlign=middle;whiteSpace=wrap;rounded=0;fontColor=light-dark(#df6311, #ededed);" parent="_MgAOBy6feDtOFkJu5NF-130" vertex="1">
          <mxGeometry x="337.0833333333333" y="36.07843137254902" width="127.01690821256038" height="27.05882352941176" as="geometry" />
        </mxCell>
        <mxCell id="vOZcsts-n8bVb5NV--et-28" value="" style="group" vertex="1" connectable="0" parent="vOZcsts-n8bVb5NV--et-2">
          <mxGeometry x="28.995169082125585" y="30.66666666666663" width="99.66453537936923" height="88.3921568627451" as="geometry" />
        </mxCell>
        <mxCell id="vOZcsts-n8bVb5NV--et-29" value="" style="sketch=0;points=[[0,0,0],[0.25,0,0],[0.5,0,0],[0.75,0,0],[1,0,0],[0,1,0],[0.25,1,0],[0.5,1,0],[0.75,1,0],[1,1,0],[0,0.25,0],[0,0.5,0],[0,0.75,0],[1,0.25,0],[1,0.5,0],[1,0.75,0]];outlineConnect=0;fontColor=#232F3E;fillColor=#ED7100;strokeColor=#ffffff;dashed=0;verticalLabelPosition=bottom;verticalAlign=top;align=center;html=1;fontSize=12;fontStyle=0;aspect=fixed;shape=mxgraph.aws4.resourceIcon;resIcon=mxgraph.aws4.ec2;" vertex="1" parent="vOZcsts-n8bVb5NV--et-28">
          <mxGeometry width="70.3529411764706" height="70.3529411764706" as="geometry" />
        </mxCell>
        <mxCell id="vOZcsts-n8bVb5NV--et-30" value="" style="sketch=0;points=[[0,0,0],[0.25,0,0],[0.5,0,0],[0.75,0,0],[1,0,0],[0,1,0],[0.25,1,0],[0.5,1,0],[0.75,1,0],[1,1,0],[0,0.25,0],[0,0.5,0],[0,0.75,0],[1,0.25,0],[1,0.5,0],[1,0.75,0]];outlineConnect=0;fontColor=#232F3E;fillColor=#ED7100;strokeColor=#ffffff;dashed=0;verticalLabelPosition=bottom;verticalAlign=top;align=center;html=1;fontSize=12;fontStyle=0;aspect=fixed;shape=mxgraph.aws4.resourceIcon;resIcon=mxgraph.aws4.ec2;" vertex="1" parent="vOZcsts-n8bVb5NV--et-28">
          <mxGeometry x="9.770531400966206" y="9.019607843137255" width="70.3529411764706" height="70.3529411764706" as="geometry" />
        </mxCell>
        <mxCell id="vOZcsts-n8bVb5NV--et-31" value="Front End Servers" style="sketch=0;points=[[0,0,0],[0.25,0,0],[0.5,0,0],[0.75,0,0],[1,0,0],[0,1,0],[0.25,1,0],[0.5,1,0],[0.75,1,0],[1,1,0],[0,0.25,0],[0,0.5,0],[0,0.75,0],[1,0.25,0],[1,0.5,0],[1,0.75,0]];outlineConnect=0;fontColor=#232F3E;fillColor=#ED7100;strokeColor=#ffffff;dashed=0;verticalLabelPosition=bottom;verticalAlign=top;align=center;html=1;fontSize=12;fontStyle=0;aspect=fixed;shape=mxgraph.aws4.resourceIcon;resIcon=mxgraph.aws4.ec2;" vertex="1" parent="vOZcsts-n8bVb5NV--et-28">
          <mxGeometry x="30.31159420289862" y="19.039215686274506" width="70.3529411764706" height="70.3529411764706" as="geometry" />
        </mxCell>
        <mxCell id="_MgAOBy6feDtOFkJu5NF-75" value="Primary DB instance" style="outlineConnect=0;dashed=0;verticalLabelPosition=bottom;verticalAlign=top;align=center;html=1;shape=mxgraph.aws3.rds_db_instance;fillColor=#2E73B8;gradientColor=none;" parent="vOZcsts-n8bVb5NV--et-2" vertex="1">
          <mxGeometry x="660.23" y="227.5" width="65" height="82.5" as="geometry" />
        </mxCell>
        <mxCell id="_MgAOBy6feDtOFkJu5NF-70" value="Standby DB instnce" style="outlineConnect=0;dashed=0;verticalLabelPosition=bottom;verticalAlign=top;align=center;html=1;shape=mxgraph.aws3.rds_db_instance_standby_multi_az;fillColor=#2E73B8;gradientColor=none;" parent="vOZcsts-n8bVb5NV--et-2" vertex="1">
          <mxGeometry x="59.31" y="230" width="60" height="80" as="geometry" />
        </mxCell>
        <mxCell id="_MgAOBy6feDtOFkJu5NF-77" style="edgeStyle=orthogonalEdgeStyle;rounded=0;orthogonalLoop=1;jettySize=auto;html=1;entryX=1;entryY=0.5;entryDx=0;entryDy=0;entryPerimeter=0;" parent="vOZcsts-n8bVb5NV--et-2" source="_MgAOBy6feDtOFkJu5NF-75" target="_MgAOBy6feDtOFkJu5NF-70" edge="1">
          <mxGeometry relative="1" as="geometry">
            <mxPoint x="139" y="699" as="targetPoint" />
          </mxGeometry>
        </mxCell>
        <mxCell id="_MgAOBy6feDtOFkJu5NF-78" value="Sync replica" style="edgeLabel;html=1;align=center;verticalAlign=middle;resizable=0;points=[];" parent="_MgAOBy6feDtOFkJu5NF-77" vertex="1" connectable="0">
          <mxGeometry x="0.0138" y="-2" relative="1" as="geometry">
            <mxPoint as="offset" />
          </mxGeometry>
        </mxCell>
        <mxCell id="vOZcsts-n8bVb5NV--et-21" value="Public subnet -pub01&lt;div&gt;&lt;br&gt;&lt;/div&gt;" style="points=[[0,0],[0.25,0],[0.5,0],[0.75,0],[1,0],[1,0.25],[1,0.5],[1,0.75],[1,1],[0.75,1],[0.5,1],[0.25,1],[0,1],[0,0.75],[0,0.5],[0,0.25]];outlineConnect=0;gradientColor=none;html=1;whiteSpace=wrap;fontSize=12;fontStyle=0;container=1;pointerEvents=0;collapsible=0;recursiveResize=0;shape=mxgraph.aws4.group;grIcon=mxgraph.aws4.group_security_group;grStroke=0;strokeColor=#7AA116;fillColor=#F2F6E8;verticalAlign=top;align=left;spacingLeft=30;fontColor=#248814;dashed=0;" vertex="1" parent="UEzPUAAOIrF-is8g5C7q-74">
          <mxGeometry x="791" y="200" width="220" height="158.5" as="geometry" />
        </mxCell>
        <mxCell id="vOZcsts-n8bVb5NV--et-22" value="NAT Gateway&lt;div&gt;&lt;br&gt;&lt;/div&gt;" style="sketch=0;outlineConnect=0;fontColor=#232F3E;gradientColor=none;fillColor=#8C4FFF;strokeColor=none;dashed=0;verticalLabelPosition=bottom;verticalAlign=top;align=center;html=1;fontSize=12;fontStyle=0;aspect=fixed;pointerEvents=1;shape=mxgraph.aws4.nat_gateway;" vertex="1" parent="vOZcsts-n8bVb5NV--et-21">
          <mxGeometry x="70.5" y="40" width="78" height="78" as="geometry" />
        </mxCell>
        <mxCell id="vOZcsts-n8bVb5NV--et-45" style="edgeStyle=orthogonalEdgeStyle;rounded=0;orthogonalLoop=1;jettySize=auto;html=1;entryX=1;entryY=0.5;entryDx=0;entryDy=0;entryPerimeter=0;" edge="1" parent="UEzPUAAOIrF-is8g5C7q-74" source="_MgAOBy6feDtOFkJu5NF-28" target="vOZcsts-n8bVb5NV--et-31">
          <mxGeometry relative="1" as="geometry">
            <mxPoint x="360.25" y="459" as="targetPoint" />
            <Array as="points" />
            <mxPoint x="161.25" y="200" as="sourcePoint" />
          </mxGeometry>
        </mxCell>
        <mxCell id="_MgAOBy6feDtOFkJu5NF-128" style="edgeStyle=orthogonalEdgeStyle;rounded=0;orthogonalLoop=1;jettySize=auto;html=1;entryX=0;entryY=0.75;entryDx=0;entryDy=0;entryPerimeter=0;" parent="UEzPUAAOIrF-is8g5C7q-74" source="_MgAOBy6feDtOFkJu5NF-28" edge="1" target="6-wo6CA7XKE2UaLxaIhD-33">
          <mxGeometry relative="1" as="geometry">
            <mxPoint x="700.75" y="220" as="targetPoint" />
            <Array as="points" />
            <mxPoint x="700.75" y="287.9992272902889" as="sourcePoint" />
          </mxGeometry>
        </mxCell>
        <mxCell id="vOZcsts-n8bVb5NV--et-63" value="Internet Gateway" style="sketch=0;outlineConnect=0;fontColor=#232F3E;gradientColor=none;fillColor=#8C4FFF;strokeColor=none;dashed=0;verticalLabelPosition=bottom;verticalAlign=top;align=center;html=1;fontSize=12;fontStyle=0;aspect=fixed;pointerEvents=1;shape=mxgraph.aws4.internet_gateway;direction=east;" vertex="1" parent="UEzPUAAOIrF-is8g5C7q-74">
          <mxGeometry x="557" y="130" width="78" height="78" as="geometry" />
        </mxCell>
        <mxCell id="6-wo6CA7XKE2UaLxaIhD-18" value="" style="group" parent="1" vertex="1" connectable="0">
          <mxGeometry x="-50" y="-440" width="830" height="290" as="geometry" />
        </mxCell>
        <mxCell id="_MgAOBy6feDtOFkJu5NF-1" value="User" style="fontColor=#0066CC;verticalAlign=top;verticalLabelPosition=bottom;labelPosition=center;align=center;html=1;outlineConnect=0;fillColor=#CCCCCC;strokeColor=#6881B3;gradientColor=none;gradientDirection=north;strokeWidth=2;shape=mxgraph.networks.pc;" parent="6-wo6CA7XKE2UaLxaIhD-18" vertex="1">
          <mxGeometry x="240" y="174.6987951807229" width="52.5" height="34.93975903614458" as="geometry" />
        </mxCell>
        <mxCell id="6-wo6CA7XKE2UaLxaIhD-1" value="Okta" style="sketch=0;verticalLabelPosition=bottom;sketch=0;aspect=fixed;html=1;verticalAlign=top;strokeColor=none;fillColor=#000000;align=center;outlineConnect=0;pointerEvents=1;shape=mxgraph.citrix2.authentication_okta;" parent="6-wo6CA7XKE2UaLxaIhD-18" vertex="1">
          <mxGeometry x="20" y="10" width="48.915662650602414" height="48.915662650602414" as="geometry" />
        </mxCell>
        <mxCell id="vOZcsts-n8bVb5NV--et-59" style="edgeStyle=orthogonalEdgeStyle;rounded=0;orthogonalLoop=1;jettySize=auto;html=1;entryX=0;entryY=0.7;entryDx=0;entryDy=0;entryPerimeter=0;" edge="1" parent="6-wo6CA7XKE2UaLxaIhD-18" target="6-wo6CA7XKE2UaLxaIhD-4">
          <mxGeometry relative="1" as="geometry">
            <mxPoint x="99.45783132530141" y="240" as="targetPoint" />
            <mxPoint x="99" y="210" as="sourcePoint" />
            <Array as="points">
              <mxPoint x="99" y="279" />
            </Array>
          </mxGeometry>
        </mxCell>
        <mxCell id="6-wo6CA7XKE2UaLxaIhD-2" value="Employee" style="shape=image;html=1;verticalAlign=top;verticalLabelPosition=bottom;labelBackgroundColor=#ffffff;imageAspect=0;aspect=fixed;image=https://cdn0.iconfinder.com/data/icons/job-seeker/256/laptop_job_seeker_employee_unemployee_work_1-128.png" parent="6-wo6CA7XKE2UaLxaIhD-18" vertex="1">
          <mxGeometry x="75" y="160.72289156626508" width="48.915662650602414" height="48.915662650602414" as="geometry" />
        </mxCell>
        <mxCell id="6-wo6CA7XKE2UaLxaIhD-4" value="Internet Access&lt;div&gt;&lt;br&gt;&lt;/div&gt;" style="outlineConnect=0;dashed=0;verticalLabelPosition=bottom;verticalAlign=top;align=center;html=1;shape=mxgraph.aws3.internet_3;fillColor=#D2D3D3;gradientColor=none;" parent="6-wo6CA7XKE2UaLxaIhD-18" vertex="1">
          <mxGeometry x="150.75" y="252.26506024096386" width="59.625" height="37.734939759036145" as="geometry" />
        </mxCell>
        <mxCell id="6-wo6CA7XKE2UaLxaIhD-12" value="" style="endArrow=classic;html=1;rounded=0;fontSize=12;startSize=8;endSize=8;curved=1;" parent="6-wo6CA7XKE2UaLxaIhD-18" edge="1">
          <mxGeometry width="50" height="50" relative="1" as="geometry">
            <mxPoint x="157.5" y="188.67469879518072" as="sourcePoint" />
            <mxPoint x="157.5" y="69.87951807228916" as="targetPoint" />
          </mxGeometry>
        </mxCell>
        <mxCell id="6-wo6CA7XKE2UaLxaIhD-13" value="" style="endArrow=classic;html=1;rounded=0;fontSize=12;startSize=8;endSize=8;curved=1;" parent="6-wo6CA7XKE2UaLxaIhD-18" edge="1">
          <mxGeometry width="50" height="50" relative="1" as="geometry">
            <mxPoint x="187.5" y="69.87951807228916" as="sourcePoint" />
            <mxPoint x="187.5" y="195.66265060240966" as="targetPoint" />
          </mxGeometry>
        </mxCell>
        <mxCell id="6-wo6CA7XKE2UaLxaIhD-15" value="1.Request session" style="text;html=1;align=center;verticalAlign=middle;resizable=0;points=[];autosize=1;strokeColor=none;fillColor=none;fontSize=16;" parent="6-wo6CA7XKE2UaLxaIhD-18" vertex="1">
          <mxGeometry x="-9.25" y="97.83132530120483" width="160" height="30" as="geometry" />
        </mxCell>
        <mxCell id="6-wo6CA7XKE2UaLxaIhD-17" value="2. Send back credential toke" style="text;html=1;align=center;verticalAlign=middle;resizable=0;points=[];autosize=1;strokeColor=none;fillColor=none;fontSize=16;" parent="6-wo6CA7XKE2UaLxaIhD-18" vertex="1">
          <mxGeometry x="202.5" y="97.83132530120483" width="230" height="30" as="geometry" />
        </mxCell>
        <mxCell id="6-wo6CA7XKE2UaLxaIhD-14" value="&lt;h1 style=&quot;margin-top: 0px;&quot;&gt;&lt;font style=&quot;font-size: 13px;&quot;&gt;Or Other Auth solution like SSO/Authing/istio etc.&lt;/font&gt;&lt;/h1&gt;" style="text;html=1;whiteSpace=wrap;overflow=hidden;rounded=0;" parent="6-wo6CA7XKE2UaLxaIhD-18" vertex="1">
          <mxGeometry x="80" y="13.970000000000027" width="340" height="83.86" as="geometry" />
        </mxCell>
        <mxCell id="6-wo6CA7XKE2UaLxaIhD-23" value="" style="endArrow=classic;html=1;rounded=0;fontSize=12;startSize=8;endSize=8;curved=1;" parent="6-wo6CA7XKE2UaLxaIhD-18" edge="1">
          <mxGeometry width="50" height="50" relative="1" as="geometry">
            <mxPoint x="180" y="290" as="sourcePoint" />
            <mxPoint x="180" y="350" as="targetPoint" />
          </mxGeometry>
        </mxCell>
        <mxCell id="vOZcsts-n8bVb5NV--et-58" style="edgeStyle=orthogonalEdgeStyle;rounded=0;orthogonalLoop=1;jettySize=auto;html=1;entryX=1;entryY=0.7;entryDx=0;entryDy=0;entryPerimeter=0;" edge="1" parent="6-wo6CA7XKE2UaLxaIhD-18" source="_MgAOBy6feDtOFkJu5NF-1" target="6-wo6CA7XKE2UaLxaIhD-4">
          <mxGeometry relative="1" as="geometry">
            <Array as="points">
              <mxPoint x="270" y="279" />
            </Array>
          </mxGeometry>
        </mxCell>
      </root>
    </mxGraphModel>
  </diagram>
</mxfile>
